<svg width="20" height="20" viewBox="0 0 20 20" fill="none" xmlns="http://www.w3.org/2000/svg">
<path d="M10 13.1728C11.3807 13.1728 12.5 12.1456 12.5 10.8784C12.5 9.61123 11.3807 8.58398 10 8.58398C8.61929 8.58398 7.5 9.61123 7.5 10.8784C7.5 12.1456 8.61929 13.1728 10 13.1728Z" fill="#BDBDBD"/>
<path d="M16.6685 4.76032H14.0268L12.9935 3.72783C12.8382 3.57135 12.649 3.44632 12.4381 3.36072C12.2271 3.27512 11.9991 3.23084 11.7685 3.23071H8.23512C7.76846 3.23071 7.31846 3.41427 7.00179 3.72783L5.97679 4.76032H3.33512C2.41846 4.76032 1.66846 5.44864 1.66846 6.28992V15.4676C1.66846 16.3088 2.41846 16.9972 3.33512 16.9972H16.6685C17.5851 16.9972 18.3351 16.3088 18.3351 15.4676V6.28992C18.3351 5.44864 17.5851 4.76032 16.6685 4.76032ZM10.0018 14.7028C7.70179 14.7028 5.83512 12.9896 5.83512 10.8787C5.83512 8.76788 7.70179 7.05473 10.0018 7.05473C12.3018 7.05473 14.1685 8.76788 14.1685 10.8787C14.1685 12.9896 12.3018 14.7028 10.0018 14.7028Z" fill="#BDBDBD"/>
</svg>
