<svg width="20" height="20" viewBox="0 0 20 20" fill="none" xmlns="http://www.w3.org/2000/svg">
<path d="M16.8565 8.01438L12.4616 7.42818L10.497 3.77277C10.4433 3.67269 10.355 3.59167 10.246 3.54242C9.9725 3.41851 9.64015 3.52177 9.5034 3.77277L7.53876 7.42818L3.14383 8.01438C3.02267 8.03026 2.91188 8.08269 2.82707 8.16212C2.72453 8.25884 2.66802 8.38897 2.66997 8.52391C2.67192 8.65885 2.73216 8.78756 2.83745 8.88176L6.01724 11.727L5.266 15.7446C5.24838 15.838 5.25965 15.9342 5.29853 16.022C5.3374 16.1099 5.40233 16.186 5.48595 16.2418C5.56957 16.2975 5.66853 16.3306 5.77161 16.3374C5.8747 16.3441 5.97778 16.3242 6.06917 16.28L10.0002 14.3831L13.9312 16.28C14.0385 16.3324 14.1632 16.3498 14.2826 16.3308C14.5838 16.2831 14.7863 16.021 14.7344 15.7446L13.9831 11.727L17.1629 8.88176C17.2495 8.80392 17.3066 8.70225 17.3239 8.59105C17.3706 8.31304 17.1595 8.05568 16.8565 8.01438Z" fill="#BDBDBD"/>
</svg>
