<svg width="20" height="20" viewBox="0 0 20 20" fill="none" xmlns="http://www.w3.org/2000/svg">
<path d="M10 5.17908C5.28375 5.17908 1.5625 10.0003 1.5625 10.0003C1.5625 10.0003 5.28375 14.8222 10 14.8222C13.6062 14.8222 18.4375 10.0003 18.4375 10.0003C18.4375 10.0003 13.6062 5.17908 10 5.17908ZM10 13.0041C8.34375 13.0041 6.99563 11.6566 6.99563 10.0003C6.99563 8.34408 8.34375 6.99595 10 6.99595C11.6562 6.99595 13.0044 8.34408 13.0044 10.0003C13.0044 11.6566 11.6562 13.0047 10 13.0047V13.0041ZM10 8.24658C9.76695 8.24218 9.53536 8.28428 9.31877 8.37042C9.10218 8.45656 8.90494 8.58502 8.73857 8.74828C8.5722 8.91153 8.44004 9.10632 8.34983 9.32124C8.25961 9.53617 8.21314 9.76692 8.21314 10C8.21314 10.2331 8.25961 10.4639 8.34983 10.6788C8.44004 10.8937 8.5722 11.0885 8.73857 11.2518C8.90494 11.415 9.10218 11.5435 9.31877 11.6296C9.53536 11.7158 9.76695 11.7579 10 11.7535C10.4593 11.7448 10.8969 11.5562 11.2186 11.2283C11.5404 10.9005 11.7206 10.4594 11.7206 10C11.7206 9.54063 11.5404 9.09958 11.2186 8.77169C10.8969 8.4438 10.4593 8.25525 10 8.24658Z" fill="#999999"/>
</svg>
