<svg width="24" height="24" fill="none" xmlns="http://www.w3.org/2000/svg"><path d="M21.902 12.667l-1.178-1.872.699-2.1a.64.64 0 00-.283-.752l-1.908-1.107-.35-2.188a.639.639 0 00-.599-.534l-2.2-.086-1.32-1.774a.63.63 0 00-.775-.192L12 3.014l-1.988-.953a.628.628 0 00-.776.193l-1.32 1.774-2.2.086a.629.629 0 00-.597.533l-.351 2.188L2.86 7.942a.634.634 0 00-.284.752l.7 2.1-1.178 1.873a.64.64 0 00.097.799L3.783 15l-.178 2.207a.64.64 0 00.453.663l2.115.613.86 2.04a.631.631 0 00.707.375l2.158-.446 1.702 1.404a.633.633 0 00.8 0l1.702-1.404 2.158.446a.629.629 0 00.707-.375l.86-2.04 2.115-.613a.63.63 0 00.453-.663L20.217 15l1.588-1.533a.637.637 0 00.098-.799zm-5.341-3.055l-4.417 6.661c-.167.248-.425.415-.682.415-.256 0-.542-.145-.725-.329l-3.242-3.317a.59.59 0 010-.82l.8-.82a.563.563 0 01.8 0l2.11 2.158 3.48-5.25a.563.563 0 01.787-.152l.938.649a.59.59 0 01.15.805z" fill="#005FAE"/></svg>