<svg width="20" height="20" fill="none" xmlns="http://www.w3.org/2000/svg"><path d="M5.19 14.077l-.634 1.32a.703.703 0 00.105.757c.14.14.317.229.51.229.07 0 .159-.018.23-.036l3.044-1.09c.44.07.898.105 1.355.105 4.119 0 7.48-2.728 7.48-6.072S13.92 3.218 9.8 3.218c-4.118 0-7.48 2.728-7.48 6.072 0 1.865 1.074 3.643 2.87 4.787zM9.8 4.274c3.538 0 6.424 2.253 6.424 5.016s-2.886 5.016-6.424 5.016a7.75 7.75 0 01-1.284-.106.727.727 0 00-.335.035l-2.288.81.387-.827A.688.688 0 006 13.32c-1.655-.95-2.623-2.464-2.623-4.048 0-2.745 2.887-4.998 6.424-4.998z" fill="#999"/><path stroke="#999" stroke-linecap="round" stroke-linejoin="round" d="M6.5 8.5h6m-6 2h4"/></svg>