<svg width="20" height="20" fill="none" xmlns="http://www.w3.org/2000/svg"><path d="M16.857 8.014l-4.395-.586-1.965-3.655a.53.53 0 00-.251-.23c-.274-.124-.606-.021-.743.23L7.54 7.428l-4.395.586a.572.572 0 00-.317.148.488.488 0 00-.157.362.49.49 0 00.167.358l3.18 2.845-.751 4.018a.469.469 0 00.033.277.517.517 0 00.187.22.585.585 0 00.583.038L10 14.383l3.931 1.897c.108.052.232.07.352.05.3-.047.503-.309.451-.585l-.75-4.018 3.179-2.845a.494.494 0 00.16-.291c.048-.278-.163-.535-.466-.577z" fill="#BDBDBD"/></svg>